<?xml version="1.0" standalone="no"?><!DOCTYPE svg PUBLIC "-//W3C//DTD SVG 1.1//EN" "http://www.w3.org/Graphics/SVG/1.1/DTD/svg11.dtd"><svg t="1632739924211" class="icon" viewBox="0 0 1024 1024" version="1.1" xmlns="http://www.w3.org/2000/svg" p-id="2613" xmlns:xlink="http://www.w3.org/1999/xlink" width="200" height="200"><defs><style type="text/css"></style></defs><path d="M469.333333 298.666667v597.333333h85.333334V298.666667h256V170.666667H384.426667L213.333333 263.978667V298.666667h256zM362.666667 85.333333H853.333333a42.666667 42.666667 0 0 1 42.666667 42.666667v213.333333a42.666667 42.666667 0 0 1-42.666667 42.666667h-213.333333v554.666667a42.666667 42.666667 0 0 1-42.666667 42.666666h-170.666666a42.666667 42.666667 0 0 1-42.666667-42.666666V384H170.666667a42.666667 42.666667 0 0 1-42.666667-42.666667V238.677333a42.666667 42.666667 0 0 1 22.229333-37.461333L362.666667 85.333333z" p-id="2614" fill="#ffffff"></path><path d="M640 170.666667h85.333333v128h-85.333333V170.666667z" p-id="2615" fill="#ffffff"></path></svg>