<?xml version="1.0" standalone="no"?><!DOCTYPE svg PUBLIC "-//W3C//DTD SVG 1.1//EN" "http://www.w3.org/Graphics/SVG/1.1/DTD/svg11.dtd"><svg t="1632739956208" class="icon" viewBox="0 0 1024 1024" version="1.1" xmlns="http://www.w3.org/2000/svg" p-id="3517" xmlns:xlink="http://www.w3.org/1999/xlink" width="200" height="200"><defs><style type="text/css"></style></defs><path d="M987.392 861.184c-18.432 0-33.28-14.848-33.28-33.28v-587.52c0-36.736-29.824-66.56-66.56-66.56H458.496c-18.432 0-33.28-14.848-33.28-33.28s14.848-33.28 33.28-33.28h429.056c73.344 0 132.992 59.648 132.992 132.992v587.648c0.128 18.432-14.72 33.28-33.152 33.28z" fill="#ffffff" p-id="3518"></path><path d="M223.616 140.544l331.008 135.296-78.592-135.296L554.624 5.376z" fill="#ffffff" p-id="3519"></path><path d="M565.504 916.736H136.448c-73.344 0-132.992-59.648-132.992-132.992V195.968c0-18.432 14.848-33.28 33.28-33.28s33.28 14.848 33.28 33.28v587.648c0 36.736 29.824 66.56 66.56 66.56h429.056c18.432 0 33.28 14.848 33.28 33.28-0.128 18.432-15.104 33.28-33.408 33.28z" fill="#ffffff" p-id="3520"></path><path d="M800.384 883.456L469.376 748.16l78.592 135.296-78.592 135.168z" fill="#ffffff" p-id="3521"></path></svg>