<?xml version="1.0" standalone="no"?><!DOCTYPE svg PUBLIC "-//W3C//DTD SVG 1.1//EN" "http://www.w3.org/Graphics/SVG/1.1/DTD/svg11.dtd"><svg t="1637722542101" class="icon" viewBox="0 0 1213 1024" version="1.1" xmlns="http://www.w3.org/2000/svg" p-id="4723" xmlns:xlink="http://www.w3.org/1999/xlink" width="75.8125" height="64"><defs><style type="text/css"></style></defs><path d="M320.632984 924.444444c-48.165926 34.816-103.044741 65.156741-147.949037 65.156741-18.583704 0.037926-35.384889-5.12-49.34163-17.294222a27.685926 27.685926 0 0 1-4.171852-4.513185l-87.533037-74.714074c-1.592889-1.137778-3.034074-2.275556-4.399407-3.413334-84.80237-73.045333 40.618667-330.486519 208.365037-547.081481C386.737873 147.380148 551.336391 9.974519 645.08928 0.568889c27.420444-2.806519 45.776593 5.30963 57.15437 13.653333a27.344593 27.344593 0 0 1 8.836741 5.12l98.531556 84.385185c5.499259 4.702815 8.685037 11.112296 9.481481 17.749334 25.827556 51.617185 1.441185 145.787259-51.503407 253.231407 227.024593 9.064296 445.895111 70.390519 445.895111 176.203852 0 3.109926-0.18963 6.33363-0.606815 9.633185l0.075852 115.825778a27.685926 27.685926 0 0 1 0.530963 5.30963c0 2.996148-0.18963 5.916444-0.530963 8.798814l0.113778 117.191112a27.685926 27.685926 0 0 1 0.568889 5.688888c0 3.147852-0.18963 6.295704-0.568889 9.40563v12.856889c0 10.315852-5.688889 19.342222-14.108445 24.082963-57.040593 85.522963-271.056593 130.010074-482.834963 130.010074-156.368593 0-304.090074-24.38637-395.491555-65.232593z m50.062222-39.291259c85.560889 31.099259 211.626667 49.379556 345.429333 49.379556 261.082074 0 430.800593-67.128889 441.761185-116.205037l-0.037925-51.693037c-74.865778 50.934519-214.736593 80.70637-353.773038 88.860444l-1.630814 0.037926a27.572148 27.572148 0 0 1-1.630815-55.10637c224.635259-13.198222 348.16-73.121185 356.958815-114.119111v-49.758815c-23.893333 16.308148-57.344 32.274963-103.575704 46.762666a27.685926 27.685926 0 0 1-34.664296-18.090666 27.610074 27.610074 0 0 1 18.090666-34.626371c88.974222-27.799704 120.604444-60.302222 120.604445-79.68237 0-46.535111-163.081481-116.470519-419.195259-121.856-39.936 71.793778-90.263704 147.114667-145.104593 218.074074-4.816593 6.181926-9.671111 12.363852-14.52563 18.469926 112.64 10.998519 235.52 8.040296 340.309334-8.419556a27.913481 27.913481 0 0 1 31.478518 23.021037 27.648 27.648 0 0 1-22.983111 31.516445 1379.821037 1379.821037 0 0 1-212.309333 15.663407c-60.302222 0-119.466667-3.527111-175.900445-10.581333a27.875556 27.875556 0 0 1-2.389333-0.379259c-14.791111 17.332148-29.696 34.171259-44.638815 50.441481a1278.482963 1278.482963 0 0 0 167.632593 17.256297 27.610074 27.610074 0 0 1-1.137778 55.182222h-1.137778c-75.58637-3.034074-148.176593-11.681185-210.868148-25.031111a1293.046519 1293.046519 0 0 1-76.8 70.883555zM760.080687 133.992296l-27.192888-23.286518c-3.527111 34.967704-15.890963 77.748148-37.015704 128.113778a27.572148 27.572148 0 1 1-50.896593-21.314371c43.880296-104.675556 35.612444-149.276444 25.106963-158.264889-3.944296-3.489185-10.505481-4.626963-19.645629-3.792592-66.142815 6.637037-214.926222 119.011556-371.332741 320.891259C92.698169 617.092741 26.707058 816.431407 63.115947 847.834074h0.037926a27.610074 27.610074 0 0 1 1.972148 1.403259c4.020148 2.275556 9.974519 3.034074 17.711407 2.23763 66.256593-6.674963 215.04-119.087407 371.181037-320.853333a1784.225185 1784.225185 0 0 0 111.80563-161.412741 27.572148 27.572148 0 1 1 47.141926 28.709926 1812.783407 1812.783407 0 0 1-115.294815 166.456889c-133.878519 173.018074-278.376296 300.752593-374.897778 334.013629l40.315259 34.398815c20.366222 8.343704 84.461037-11.984593 188.871112-104.448 65.308444-57.457778 133.878519-131.792593 198.352592-215.04 186.368-240.981333 252.397037-440.32 215.950222-471.722667a27.534222 27.534222 0 0 1-6.144-7.585185z" p-id="4724" fill="#ffffff"></path></svg>